<svg width="968" height="529" viewBox="0 0 968 529" fill="none" xmlns="http://www.w3.org/2000/svg">
<g clip-path="url(#clip0_1513_15)">
<path d="M38.4285 506.771C64.851 525.806 99.0927 526.762 132.191 524.423C136.813 524.097 141.402 523.715 145.948 523.302C145.976 523.295 146.012 523.297 146.04 523.29C146.258 523.269 146.477 523.249 146.686 523.236C147.624 523.148 148.563 523.061 149.493 522.972L149.273 523.391L148.584 524.692C148.832 524.256 149.079 523.83 149.327 523.395C149.4 523.264 149.482 523.134 149.554 523.004C158.128 508.083 166.632 492.614 168.802 475.576C171.044 457.892 164.742 437.867 149.178 429.175C147.137 428.038 144.975 427.133 142.733 426.476C141.802 426.193 140.859 425.963 139.905 425.76C134.067 424.464 127.99 424.746 122.298 426.577C116.606 428.408 111.504 431.723 107.517 436.179C103.53 440.635 100.803 446.073 99.6141 451.934C98.4257 457.794 98.8196 463.865 100.755 469.522C87.5595 455.991 90.021 434.04 94.5729 415.695C99.1337 397.35 104.655 376.936 95.3787 360.459C90.2223 351.287 81.1544 345.597 70.9781 343.305C70.6659 343.237 70.3541 343.17 70.0413 343.112C57.9165 340.656 45.3115 342.864 34.744 349.296C15.2859 361.558 5.29195 384.807 2.04834 407.581C-3.17771 444.228 8.38762 485.128 38.4285 506.771Z" fill="#F1F1F1"/>
<path d="M46.9594 448.024C47.7264 456.108 49.6682 464.036 52.7235 471.56C55.5392 478.217 59.3344 484.416 63.9833 489.951C73.4798 501.375 86.0369 509.964 99.6743 515.686C110.102 519.957 121.027 522.893 132.191 524.423C136.813 524.097 141.402 523.715 145.948 523.302C145.976 523.295 146.012 523.297 146.04 523.29C146.258 523.269 146.477 523.249 146.686 523.236C147.624 523.148 148.563 523.061 149.493 522.972L149.273 523.391L148.584 524.692C148.832 524.256 149.079 523.83 149.327 523.395C149.4 523.264 149.481 523.134 149.554 523.004C141.185 514.665 134.936 504.442 131.331 493.191C127.727 481.94 126.871 469.989 128.837 458.339C130.893 446.771 135.655 435.854 142.733 426.476C141.802 426.193 140.859 425.964 139.905 425.76C137.215 429.438 134.855 433.346 132.853 437.439C125.671 452.036 123.38 468.558 126.319 484.559C129.051 499.038 135.857 512.437 145.938 523.183C145.056 523.121 144.164 523.049 143.292 522.97C126.77 521.57 110.282 518.018 95.297 510.743C82.4879 504.675 71.3674 495.55 62.915 484.173C53.8394 471.656 49.8402 456.601 49.1532 441.299C48.4248 424.917 50.5504 408.247 54.289 392.316C58.1066 375.983 63.9083 360.179 71.565 345.256C71.7362 344.918 71.7708 344.526 71.6615 344.163C71.5523 343.8 71.3076 343.492 70.9781 343.305C70.7034 343.119 70.3668 343.05 70.0413 343.112C69.882 343.154 69.7344 343.232 69.6092 343.339C69.4841 343.446 69.3848 343.58 69.3187 343.731C68.3742 345.574 67.4472 347.419 66.5555 349.284C59.1288 364.822 53.6611 381.222 50.278 398.107C46.9937 414.397 45.2407 431.437 46.9594 448.024Z" fill="white"/>
<path d="M382 529H1C0.734784 529 0.480429 528.895 0.292892 528.707C0.105356 528.52 0 528.265 0 528C0 527.735 0.105356 527.48 0.292892 527.293C0.480429 527.105 0.734784 527 1 527H382C382.265 527 382.52 527.105 382.707 527.293C382.895 527.48 383 527.735 383 528C383 528.265 382.895 528.52 382.707 528.707C382.52 528.895 382.265 529 382 529Z" fill="#CBCBCB"/>
<path d="M267.631 260.467L250.403 176.051L242.835 113.702L226.07 124.548L228.386 193.257L255.146 264.446C254.285 266.084 253.932 267.941 254.13 269.781C254.328 271.62 255.069 273.359 256.258 274.777C257.447 276.194 259.03 277.226 260.807 277.741C262.584 278.256 264.474 278.231 266.237 277.67C267.999 277.108 269.555 276.034 270.706 274.586C271.858 273.138 272.552 271.38 272.701 269.536C272.851 267.692 272.449 265.845 271.546 264.23C270.643 262.615 269.28 261.305 267.631 260.467Z" fill="#FFB7B7"/>
<path d="M106.503 266.995L111.272 180.972L109.692 118.185L131.857 126.477L135.557 194.793L119.434 269.116C120.523 270.612 121.143 272.398 121.215 274.246C121.286 276.095 120.807 277.923 119.836 279.499C118.866 281.074 117.449 282.325 115.766 283.093C114.083 283.861 112.21 284.112 110.384 283.812C108.558 283.513 106.863 282.677 105.513 281.411C104.164 280.146 103.221 278.507 102.805 276.705C102.389 274.902 102.519 273.016 103.177 271.287C103.836 269.558 104.993 268.064 106.503 266.995Z" fill="#FFB7B7"/>
<path d="M152.925 517.096L164.25 517.095L169.638 473.411L152.923 473.412L152.925 517.096Z" fill="#FFB7B7"/>
<path d="M150.036 513.398L172.34 513.397C176.109 513.398 179.726 514.895 182.391 517.561C185.057 520.226 186.554 523.841 186.555 527.611V528.073L150.036 528.074L150.036 513.398Z" fill="#2F2E41"/>
<path d="M195.822 512.084L207.014 513.815L219.018 471.469L202.5 468.914L195.822 512.084Z" fill="#FFB7B7"/>
<path d="M193.532 507.988L215.574 511.398C219.3 511.974 222.644 514.007 224.871 517.049C227.098 520.091 228.025 523.893 227.449 527.618L227.378 528.074L191.289 522.492L193.532 507.988Z" fill="#2F2E41"/>
<path d="M149.598 504.053L149.539 503.736L108.539 282.061C105.284 264.265 107.88 245.893 115.939 229.696L140.754 180.064L214.803 190.096L223.541 253.285L254.684 373.827L254.653 373.925L214.753 500.666L188.603 502.386L211.767 389.251L169.353 292.915L172.344 502.329L149.598 504.053Z" fill="#141430"/>
<path d="M216.526 198.183L216.038 197.417C215.95 197.279 206.955 183.727 182.479 192.775C157.492 202.014 138.132 184.171 137.939 183.99L137.843 183.899L132.185 133.464L125.505 92.5202L146.769 88.7896L157.223 82.5175L198.794 81.7773L209.733 90.3813L227.694 92.3387L229.338 129.646L229.33 129.686L216.526 198.183Z" fill="#00BFA6"/>
<path d="M222.484 133.255V101.31L227.535 92.0923L227.74 92.0859C231.716 92.2342 235.474 93.9416 238.201 96.8388C243.281 102 245.582 110.6 245.041 122.398L245.031 122.614L222.484 133.255Z" fill="#00BFA6"/>
<path d="M134.453 129.782L108.711 126.693L108.691 126.396C107.812 113.559 110.053 104.03 115.35 98.0748C120.158 92.6698 125.666 92.3424 125.898 92.3312L126.047 92.3242L133.015 98.659L134.453 129.782Z" fill="#00BFA6"/>
<path d="M208.97 68.9058H141.233C139.839 68.9042 138.503 68.35 137.518 67.3647C136.533 66.3795 135.979 65.0436 135.977 63.6503V39.1245C135.977 28.748 140.099 18.7966 147.436 11.4593C154.774 4.12203 164.725 0 175.102 0C185.478 0 195.429 4.12203 202.767 11.4593C210.104 18.7966 214.226 28.748 214.226 39.1245V63.6503C214.224 65.0436 213.67 66.3795 212.685 67.3647C211.7 68.35 210.364 68.9042 208.97 68.9058Z" fill="#2F2E41"/>
<path d="M201.844 53.7389C209.442 39.8381 204.334 22.4093 190.433 14.8105C176.532 7.21167 159.103 12.3204 151.505 26.2211C143.906 40.1219 149.014 57.5507 162.915 65.1495C176.816 72.7483 194.245 67.6396 201.844 53.7389Z" fill="#FFB7B7"/>
<path d="M203.939 40.8767H166.069C165.357 40.8758 164.67 40.6155 164.137 40.1446C163.604 39.6737 163.26 39.0244 163.171 38.3186L162.681 34.3963C162.634 34.0192 162.465 33.6676 162.201 33.3945C161.937 33.1215 161.591 32.9419 161.215 32.8828C160.84 32.8237 160.455 32.8883 160.12 33.0669C159.784 33.2455 159.516 33.5284 159.355 33.8728L156.873 39.1922C156.636 39.6948 156.262 40.1199 155.794 40.4181C155.326 40.7164 154.782 40.8754 154.227 40.8767H148.474C148.067 40.8769 147.665 40.7919 147.293 40.6273C146.921 40.4627 146.587 40.2221 146.313 39.921C146.04 39.6198 145.832 39.2648 145.704 38.8787C145.575 38.4925 145.529 38.0838 145.568 37.6787L147.836 13.9867C147.885 13.4798 148.064 12.9942 148.356 12.5774C148.649 12.1606 149.044 11.8268 149.505 11.6087C166.848 3.51212 184.436 3.52237 201.78 11.6395C202.219 11.8463 202.601 12.1595 202.889 12.5508C203.178 12.9421 203.364 13.3991 203.432 13.8806L206.829 37.5419C206.889 37.9562 206.859 38.3784 206.741 38.78C206.623 39.1816 206.42 39.5532 206.146 39.8695C205.872 40.1858 205.533 40.4394 205.152 40.6132C204.772 40.787 204.358 40.8769 203.939 40.8767Z" fill="#2F2E41"/>
<path d="M267.719 265.859L266.305 264.445L327.767 202.982H446.875L506.97 141.647H624.539L683.855 81.8691H824.5V83.8691H684.688L625.372 143.647H507.81L447.715 204.982H328.596L267.719 265.859Z" fill="#3F3D56"/>
<path d="M508.972 180C529.407 180 545.972 163.435 545.972 143C545.972 122.565 529.407 106 508.972 106C488.538 106 471.972 122.565 471.972 143C471.972 163.435 488.538 180 508.972 180Z" fill="white"/>
<path d="M684.972 93C690.495 93 694.972 88.5228 694.972 83C694.972 77.4772 690.495 73 684.972 73C679.45 73 674.972 77.4772 674.972 83C674.972 88.5228 679.45 93 684.972 93Z" fill="#141430"/>
<path d="M508.972 181C501.457 181 494.11 178.771 487.861 174.596C481.612 170.42 476.741 164.486 473.865 157.542C470.989 150.598 470.236 142.958 471.703 135.587C473.169 128.215 476.788 121.444 482.102 116.13C487.417 110.816 494.188 107.196 501.559 105.73C508.93 104.264 516.571 105.016 523.514 107.893C530.458 110.769 536.393 115.639 540.568 121.888C544.744 128.137 546.972 135.484 546.972 143C546.961 153.075 542.954 162.734 535.83 169.857C528.706 176.981 519.047 180.989 508.972 181ZM508.972 107C501.852 107 494.892 109.111 488.972 113.067C483.052 117.023 478.438 122.645 475.713 129.223C472.988 135.802 472.275 143.04 473.664 150.023C475.053 157.007 478.482 163.421 483.517 168.456C488.551 173.491 494.966 176.919 501.949 178.308C508.932 179.697 516.171 178.984 522.749 176.26C529.327 173.535 534.95 168.921 538.905 163.001C542.861 157.08 544.972 150.12 544.972 143C544.962 133.456 541.165 124.305 534.416 117.556C527.667 110.807 518.517 107.011 508.972 107Z" fill="#3F3D56"/>
<path d="M508.972 169.436C523.573 169.436 535.409 157.6 535.409 143C535.409 128.399 523.573 116.563 508.972 116.563C494.372 116.563 482.536 128.399 482.536 143C482.536 157.6 494.372 169.436 508.972 169.436Z" fill="#00BFA6"/>
<path d="M506.453 154.16L498.541 143.986L503.142 140.407L506.889 145.224L519.545 131.863L523.777 135.873L506.453 154.16Z" fill="white"/>
<path d="M326.972 241C347.407 241 363.972 224.435 363.972 204C363.972 183.565 347.407 167 326.972 167C306.538 167 289.972 183.565 289.972 204C289.972 224.435 306.538 241 326.972 241Z" fill="white"/>
<path d="M326.972 242C319.457 242 312.11 239.771 305.861 235.596C299.612 231.42 294.741 225.486 291.865 218.542C288.989 211.598 288.236 203.958 289.703 196.587C291.169 189.215 294.788 182.444 300.102 177.13C305.417 171.816 312.188 168.196 319.559 166.73C326.93 165.264 334.571 166.016 341.514 168.893C348.458 171.769 354.393 176.639 358.568 182.888C362.744 189.137 364.972 196.484 364.972 204C364.961 214.075 360.954 223.734 353.83 230.857C346.706 237.981 337.047 241.989 326.972 242ZM326.972 168C319.852 168 312.892 170.111 306.972 174.067C301.052 178.023 296.438 183.645 293.713 190.223C290.988 196.802 290.275 204.04 291.664 211.023C293.053 218.007 296.482 224.421 301.517 229.456C306.551 234.491 312.966 237.919 319.949 239.308C326.933 240.697 334.171 239.984 340.749 237.26C347.327 234.535 352.95 229.921 356.905 224.001C360.861 218.08 362.972 211.12 362.972 204C362.962 194.456 359.165 185.305 352.416 178.556C345.667 171.807 336.517 168.011 326.972 168Z" fill="#3F3D56"/>
<path d="M326.972 230.436C341.573 230.436 353.409 218.6 353.409 204C353.409 189.399 341.573 177.563 326.972 177.563C312.372 177.563 300.536 189.399 300.536 204C300.536 218.6 312.372 230.436 326.972 230.436Z" fill="#00BFA6"/>
<path d="M324.453 215.16L316.541 204.986L321.142 201.407L324.889 206.224L337.545 192.863L341.777 196.873L324.453 215.16Z" fill="white"/>
<line x1="821.594" y1="82.0862" x2="938.594" y2="30.0862" stroke="#3F3D56" stroke-width="2"/>
<path d="M821.972 93C827.495 93 831.972 88.5228 831.972 83C831.972 77.4772 827.495 73 821.972 73C816.45 73 811.972 77.4772 811.972 83C811.972 88.5228 816.45 93 821.972 93Z" fill="#141430"/>
<path d="M937 41C942.523 41 947 36.5228 947 31C947 25.4772 942.523 21 937 21C931.477 21 927 25.4772 927 31C927 36.5228 931.477 41 937 41Z" fill="#141430"/>
</g>
<defs>
<clipPath id="clip0_1513_15">
<rect width="967.972" height="529" fill="white"/>
</clipPath>
</defs>
</svg>
